<?xml version="1.0" encoding="UTF-8"?><svg xmlns="http://www.w3.org/2000/svg" viewBox="0 0 3360.945 470.697"><g id="Layer_6"><polygon points="306.985 470.681 229.172 254.724 227.133 246.816 226.015 241.874 225.975 239.909 226.248 237.471 226.881 235.632 227.917 233.512 229.561 230.734 232.155 227.996 235.008 225.352 238.276 222.927 242.346 220.542 247.58 218.172 251.784 216.697 256.07 216.003 262.569 215.337 268.625 215.061 275.963 214.772 284.372 214.341 291.424 213.907 297.116 213.623 305.822 213.161 313.021 211.878 319.722 210.349 326.365 208.684 334.025 206.12 341.446 202.703 347.894 199.629 354.409 195.654 359.572 192.068 364.685 187.153 369.262 182.617 373.704 177.088 376.613 172.946 380.136 166.979 383.079 161.42 385.443 155.929 387.554 150.103 388.746 144.979 389.631 140.546 389.959 135.021 389.959 120.436 389.042 115.593 388.062 111.001 386.461 106.825 384.707 102.399 381.787 97.116 377.779 93.06 374.712 90.247 370.471 87.481 365.76 85.8 358.653 84.82 208.774 84.813 87.931 470.636 0 470.61 140.988 .013 412.998 .013 419.821 1.291 426.454 3.691 433.172 6.033 441.216 9.623 447.654 13.247 454.337 17.989 460.674 23.268 467.243 29.341 471.712 34.813 476.989 42.335 482.177 52.065 485.974 62.937 488.802 72.289 489.752 79.598 489.752 110.882 489.114 120.968 486.918 130.502 484.707 138.858 482.377 147.286 479.621 155.621 477.585 161.743 475.143 167.937 471.965 174.319 468.939 180.803 464.705 188.925 460.66 196.217 456.96 202.719 452.845 208.625 448.814 214.97 445.218 220.431 441.538 225.244 436.723 230.606 432.485 235.494 428.71 239.09 424.534 243.228 421.028 246.556 416.332 250.407 409.166 256.341 403.689 260.312 396.417 265.33 390.994 269.082 384.46 272.99 378.878 276.339 371.146 280.372 364.362 283.71 358.732 286.147 354.74 287.288 342.106 290.473 402.725 470.695 306.985 470.681" stroke="#231f20" stroke-miterlimit="10"/><polygon points="743.579 470.697 655.813 122.57 552.367 470.695 457.569 470.664 598.97 .026 726.464 .026 804.721 332.481 905.819 .026 995.469 .026 855.492 470.697 743.579 470.697" stroke="#231f20" stroke-miterlimit="10"/><polygon points="944.711 470.697 1087.461 .072 1177.741 .072 1060.78 385.878 1280.76 385.858 1256.179 470.697 944.711 470.697" stroke="#231f20" stroke-miterlimit="10"/><polygon points="1339.549 470.656 1456.109 82.813 1286.979 82.813 1312.182 .026 1743.505 .026 1717.894 82.613 1549.789 82.812 1432.04 470.693 1339.549 470.656" stroke="#231f20" stroke-miterlimit="10"/></g><g id="Layer_4"><rect x="1913.708" y="2" width="1572.059" height="470.697" fill="none"/><path d="M1960.363,465.442V2h83.046v393.459h204.662v69.983h-287.708Z"/><path d="M2413.853,472.597c-21.981,0-41.785-3.995-59.407-11.976-17.627-7.979-31.521-19.75-41.68-35.302-10.161-15.552-15.24-34.729-15.24-57.542,0-26.127,6.376-46.393,19.129-60.808,12.752-14.409,29.237-24.883,49.454-31.414,20.218-6.532,41.523-10.935,63.918-13.219,30.272-3.314,52.147-6.376,65.628-9.175,13.477-2.8,20.218-10.211,20.218-22.239v-1.555c0-17-5.186-30.219-15.552-39.657-10.371-9.434-25.402-14.152-45.1-14.152-20.324,0-36.498,4.461-48.521,13.375-12.028,8.918-20.115,19.08-24.262,30.481l-74.959-15.241c10.157-30.686,28.562-53.498,55.209-68.428,26.642-14.93,57.386-22.395,92.222-22.395,16.378,0,32.916,1.92,49.61,5.754,16.688,3.84,31.982,10.265,45.877,19.284,13.891,9.021,25.088,21.258,33.592,36.702,8.5,15.45,12.753,34.788,12.753,58.008v232.343h-77.448v-47.899h-3.109c-7.674,14.93-19.906,27.838-36.703,38.724-16.795,10.887-38.675,16.33-65.628,16.33ZM2434.691,412.566c24.883,0,44.736-7.154,59.563-21.461,14.823-14.308,22.239-31.104,22.239-50.388v-41.057c-3.732,2.906-10.371,5.443-19.906,7.621-9.54,2.177-19.648,4.043-30.326,5.599-10.682,1.555-19.546,2.853-26.594,3.888-18.248,2.488-33.436,7.465-45.566,14.93-12.13,7.465-18.195,19.182-18.195,35.147,0,14.93,5.492,26.283,16.484,34.058,10.988,7.776,25.088,11.664,42.301,11.664Z"/><path d="M2866.098,471.663c-19.906,0-36.444-3.373-49.61-10.108-13.17-6.736-23.692-14.877-31.569-24.417-7.883-9.535-13.895-18.453-18.041-26.749h-5.287v55.053h-79.003V2h80.869v173.247h3.421c3.938-8.087,9.744-16.952,17.418-26.593,7.67-9.643,18.143-17.934,31.415-24.883,13.268-6.945,30.171-10.42,50.698-10.42,26.75,0,50.957,6.843,72.627,20.528,21.666,13.686,38.88,33.854,51.632,60.496,12.753,26.647,19.129,59.252,19.129,97.821,0,38.155-6.274,70.605-18.817,97.354-12.549,26.749-29.602,47.122-51.166,61.118-21.568,13.997-46.14,20.995-73.715,20.995ZM2844.325,405.102c26.953,0,47.433-10.73,61.43-32.192,13.996-21.461,20.995-48.468,20.995-81.024,0-32.348-6.896-59.097-20.685-80.247-13.792-21.15-34.369-31.726-61.74-31.726-26.749,0-47.175,10.216-61.274,30.637-14.103,20.427-21.15,47.54-21.15,81.336s7.154,61.118,21.462,81.958c14.308,20.839,34.627,31.259,60.963,31.259Z"/><path d="M3211.657,472.597c-40.021,0-73.044-8.554-99.064-25.661-26.024-17.106-42.043-41.416-48.055-72.938l75.582-14.308c9.122,34.01,33.484,51.01,73.093,51.01,19.906,0,35.716-3.99,47.433-11.975,11.713-7.98,17.574-17.885,17.574-29.704,0-19.697-15.659-32.97-46.967-39.812l-59.408-12.752c-65.112-14.099-97.664-46.548-97.664-97.354,0-21.563,5.909-40.226,17.729-55.986,11.819-15.756,28.251-27.993,49.299-36.702,21.044-8.709,45.46-13.063,73.249-13.063,39.395,0,70.552,8.194,93.466,24.572,22.91,16.383,37.893,38.053,44.945,65.006l-72.16,14.308c-4.15-12.023-11.406-22.288-21.773-30.792-10.37-8.5-24.883-12.752-43.545-12.752-17.004,0-31.312,3.786-42.922,11.353-11.615,7.572-17.418,17.263-17.418,29.082,0,10.162,3.78,18.507,11.353,25.038,7.566,6.532,20.266,11.771,38.102,15.708l59.097,12.441c64.899,13.895,97.354,45.207,97.354,93.933,0,21.981-6.327,41.319-18.973,58.008-12.65,16.693-30.224,29.757-52.721,39.19-22.501,9.433-48.365,14.152-77.604,14.152Z"/></g></svg>