<?xml version="1.0" encoding="UTF-8"?><svg xmlns="http://www.w3.org/2000/svg" viewBox="0 0 3360.945 470.697"><g id="Regular"><polygon points="306.361 469.711 229.08 253.741 227.093 245.983 226.077 241.461 226.052 240.192 226.242 238.478 226.641 237.311 227.494 235.552 228.825 233.289 231.021 230.954 233.63 228.52 236.563 226.328 240.287 224.132 245.201 221.89 248.931 220.573 252.782 219.945 259.097 219.294 265.079 219.019 272.49 218.724 281.088 218.28 288.072 217.847 293.779 217.56 302.801 217.079 310.385 215.717 317.308 214.126 324.146 212.4 332.21 209.682 339.929 206.103 346.609 202.896 353.448 198.693 359.013 194.803 364.44 189.548 369.214 184.784 373.918 178.889 377.019 174.442 380.7 168.165 383.789 162.292 386.284 156.452 388.539 150.188 389.812 144.677 390.773 139.825 391.129 133.799 391.129 118.483 390.146 113.237 389.056 108.093 387.308 103.502 385.442 98.762 382.092 92.659 377.582 88.062 374.171 84.913 369.218 81.659 363.637 79.655 355.803 78.567 201.668 78.56 80.015 469.664 0 469.64 139.424 1.03 409.868 1.03 416.054 2.198 422.47 4.534 429.072 6.852 436.844 10.345 442.975 13.82 449.4 18.411 455.576 23.591 461.898 29.477 466.117 34.678 471.195 41.967 476.145 51.312 479.828 61.933 482.547 70.989 483.423 77.769 483.423 109.065 482.81 118.801 480.694 128.052 478.49 136.439 476.182 144.852 473.44 153.2 471.429 159.288 469.081 165.285 465.991 171.525 462.91 178.175 458.714 186.279 454.706 193.554 451.061 200.005 446.977 205.906 442.892 212.383 439.371 217.768 435.855 222.397 431.07 227.764 426.934 232.567 423.217 236.133 419.047 240.295 415.655 243.537 411.044 247.345 403.916 253.287 398.545 257.209 391.265 262.266 385.914 265.996 379.451 269.887 373.93 273.223 366.297 277.232 359.597 280.552 354.26 282.877 350.554 283.944 333.552 288.26 394.168 469.724 306.361 469.711" stroke="#231f20" stroke-miterlimit="10"/><polygon points="746.197 469.727 655.003 105.49 547.516 469.724 460.639 469.696 600.472 1.044 722.588 1.044 804.084 349.662 909.366 1.044 991.098 1.044 852.672 469.727 746.197 469.727" stroke="#231f20" stroke-miterlimit="10"/><polygon points="951.06 469.727 1092.227 1.09 1174.559 1.09 1056.813 392.18 1278.341 392.159 1256.021 469.727 951.06 469.727" stroke="#231f20" stroke-miterlimit="10"/><polygon points="1348.528 469.688 1465.87 76.532 1295.627 76.532 1318.451 1.044 1744.075 1.044 1720.888 76.333 1551.637 76.534 1433.101 469.723 1348.528 469.688" stroke="#231f20" stroke-miterlimit="10"/></g><g id="Layer_4"><rect x="1898.164" y="1.03" width="1572.059" height="470.697" fill="none"/><path d="M1944.818,464.473V1.03h83.046v393.459h204.662v69.983h-287.708Z"/><path d="M2398.308,471.627c-21.981,0-41.785-3.995-59.407-11.976-17.627-7.979-31.521-19.75-41.68-35.302-10.161-15.552-15.24-34.729-15.24-57.542,0-26.127,6.376-46.393,19.129-60.808,12.752-14.409,29.237-24.883,49.454-31.414,20.218-6.532,41.523-10.935,63.918-13.219,30.272-3.314,52.147-6.376,65.628-9.175,13.477-2.8,20.218-10.211,20.218-22.239v-1.555c0-17-5.186-30.219-15.552-39.657-10.371-9.434-25.402-14.152-45.1-14.152-20.324,0-36.498,4.461-48.521,13.375-12.028,8.918-20.115,19.08-24.262,30.481l-74.959-15.241c10.157-30.686,28.562-53.498,55.209-68.428,26.642-14.93,57.386-22.395,92.222-22.395,16.378,0,32.916,1.92,49.61,5.754,16.688,3.84,31.982,10.265,45.877,19.284,13.891,9.021,25.088,21.258,33.592,36.702,8.5,15.45,12.753,34.788,12.753,58.008v232.343h-77.448v-47.899h-3.109c-7.674,14.93-19.906,27.838-36.703,38.724-16.795,10.887-38.675,16.33-65.628,16.33ZM2419.146,411.597c24.883,0,44.736-7.154,59.563-21.461,14.823-14.308,22.239-31.104,22.239-50.388v-41.057c-3.732,2.906-10.371,5.443-19.906,7.621-9.54,2.177-19.648,4.043-30.326,5.599-10.682,1.555-19.546,2.853-26.594,3.888-18.248,2.488-33.436,7.465-45.566,14.93-12.13,7.465-18.195,19.182-18.195,35.147,0,14.93,5.492,26.283,16.484,34.058,10.988,7.776,25.088,11.664,42.301,11.664Z"/><path d="M2850.553,470.693c-19.906,0-36.444-3.373-49.61-10.108-13.17-6.736-23.692-14.877-31.569-24.417-7.883-9.535-13.895-18.453-18.041-26.749h-5.287v55.053h-79.003V1.03h80.869v173.247h3.421c3.938-8.087,9.744-16.952,17.418-26.593,7.67-9.643,18.143-17.934,31.415-24.883,13.268-6.945,30.171-10.42,50.698-10.42,26.75,0,50.957,6.843,72.627,20.528,21.666,13.686,38.88,33.854,51.632,60.496,12.753,26.647,19.129,59.252,19.129,97.821,0,38.155-6.274,70.605-18.817,97.354-12.549,26.749-29.602,47.122-51.166,61.118-21.568,13.997-46.14,20.995-73.715,20.995ZM2828.78,404.132c26.953,0,47.433-10.73,61.43-32.192,13.996-21.461,20.995-48.468,20.995-81.024,0-32.348-6.896-59.097-20.685-80.247-13.792-21.15-34.369-31.726-61.74-31.726-26.749,0-47.175,10.216-61.274,30.637-14.103,20.427-21.15,47.54-21.15,81.336s7.154,61.118,21.462,81.958c14.308,20.839,34.627,31.259,60.963,31.259Z"/><path d="M3196.112,471.627c-40.021,0-73.044-8.554-99.064-25.661-26.024-17.106-42.043-41.416-48.055-72.938l75.582-14.308c9.122,34.01,33.484,51.01,73.093,51.01,19.906,0,35.716-3.99,47.433-11.975,11.713-7.98,17.574-17.885,17.574-29.704,0-19.697-15.659-32.97-46.967-39.812l-59.408-12.752c-65.112-14.099-97.664-46.548-97.664-97.354,0-21.563,5.909-40.226,17.729-55.986,11.819-15.756,28.251-27.993,49.299-36.702,21.044-8.709,45.46-13.063,73.249-13.063,39.395,0,70.552,8.194,93.466,24.572,22.91,16.383,37.893,38.053,44.945,65.006l-72.16,14.308c-4.15-12.023-11.406-22.288-21.773-30.792-10.37-8.5-24.883-12.752-43.545-12.752-17.004,0-31.312,3.786-42.922,11.353-11.615,7.572-17.418,17.263-17.418,29.082,0,10.162,3.78,18.507,11.353,25.038,7.566,6.532,20.266,11.771,38.102,15.708l59.097,12.441c64.899,13.895,97.354,45.207,97.354,93.933,0,21.981-6.327,41.319-18.973,58.008-12.65,16.693-30.224,29.757-52.721,39.19-22.501,9.433-48.365,14.152-77.604,14.152Z"/></g></svg>