<?xml version="1.0" encoding="UTF-8"?><svg xmlns="http://www.w3.org/2000/svg" viewBox="0 0 3360.945 470.697"><g id="Layer_3"><polygon points="144.535 0 0 470.61 105.436 470.64 224.583 99.561 365.192 99.567 370.702 100.308 373.5 101.281 376.176 102.984 378.487 105.052 381.391 107.919 383.365 111.402 384.874 115.118 386.152 118.369 386.965 122.085 387.661 125.685 387.661 130.678 387.661 135.323 387.661 138.575 387.392 142.981 386.677 146.48 385.662 150.735 383.865 155.571 381.793 160.27 379.167 165.106 375.989 170.357 373.501 173.812 369.632 178.511 365.486 182.518 361.064 186.664 356.78 189.566 350.976 193.02 345.034 195.784 338.263 198.824 331.492 201.035 325.273 202.555 319.055 203.937 312.698 205.043 304.683 205.457 299.017 205.734 292.108 206.148 283.816 206.563 276.631 206.839 270.412 207.116 263.503 207.807 258.251 208.636 253 210.432 247.058 213.058 242.221 215.822 238.214 218.724 234.821 221.789 231.349 225.365 229.01 229.22 227.573 232.09 226.424 235.348 225.969 239.307 226.04 242.741 227.386 248.54 229.54 256.692 308.582 470.68 421.872 470.697 361.202 294.745 364.22 294.004 368.844 292.714 375.123 290.063 382.1 286.714 390.053 282.667 395.774 279.319 402.472 275.412 408.053 271.644 415.309 266.761 421.03 262.714 428.286 256.854 433.169 252.947 436.937 249.458 441.123 245.412 445.03 241.784 449.495 236.761 454.379 231.458 458.425 226.296 462.193 220.714 466.1 214.714 470.286 208.854 474.193 202.156 478.239 195.04 482.565 186.947 485.634 180.528 488.844 174.249 491.495 167.691 493.588 161.551 496.379 153.319 498.751 144.947 500.983 136.714 503.355 126.668 504.053 115.924 504.053 84.947 502.937 76.575 499.867 66.668 495.82 55.366 490.099 44.901 484.379 36.947 479.355 30.947 472.239 24.528 465.541 19.087 458.286 14.063 451.169 10.156 442.518 6.389 435.541 4.017 428.425 1.505 420.193 0 144.535 0" stroke="#231f20" stroke-miterlimit="10"/><polygon points="451.133 470.661 563.454 470.697 658.071 160.092 738.346 470.697 862.322 470.697 1005.823 .013 898.656 .013 806.705 294.976 735.527 .013 596.092 .013 451.133 470.661" stroke="#231f20" stroke-miterlimit="10"/><polygon points="931.4 470.697 1077.742 .057 1185.602 .057 1070.284 371.119 1287.016 371.099 1257.433 470.697 931.4 470.697" stroke="#231f20" stroke-miterlimit="10"/><polygon points="1320.728 470.652 1435.651 97.636 1268.848 97.636 1299.315 .013 1743.505 .013 1712.534 97.436 1546.832 97.627 1430.734 470.697 1320.728 470.652" stroke="#231f20" stroke-miterlimit="10"/></g><g id="Layer_4"><rect x="1913.708" width="1572.059" height="470.697" fill="none"/><path d="M1960.363,463.442V0h83.046v393.459h204.662v69.983h-287.708Z"/><path d="M2413.853,470.597c-21.981,0-41.785-3.995-59.407-11.976-17.627-7.979-31.521-19.75-41.68-35.302-10.161-15.552-15.24-34.729-15.24-57.542,0-26.127,6.376-46.393,19.129-60.808,12.752-14.409,29.237-24.883,49.454-31.414,20.218-6.532,41.523-10.935,63.918-13.219,30.272-3.314,52.147-6.376,65.628-9.175,13.477-2.8,20.218-10.211,20.218-22.239v-1.555c0-17-5.186-30.219-15.552-39.657-10.371-9.434-25.402-14.152-45.1-14.152-20.324,0-36.498,4.461-48.521,13.375-12.028,8.918-20.115,19.08-24.262,30.481l-74.959-15.241c10.157-30.686,28.562-53.498,55.209-68.428,26.642-14.93,57.386-22.395,92.222-22.395,16.378,0,32.916,1.92,49.61,5.754,16.688,3.84,31.982,10.265,45.877,19.284,13.891,9.021,25.088,21.258,33.592,36.702,8.5,15.45,12.753,34.788,12.753,58.008v232.343h-77.448v-47.899h-3.109c-7.674,14.93-19.906,27.838-36.703,38.724-16.795,10.887-38.675,16.33-65.628,16.33ZM2434.691,410.566c24.883,0,44.736-7.154,59.563-21.461,14.823-14.308,22.239-31.104,22.239-50.388v-41.057c-3.732,2.906-10.371,5.443-19.906,7.621-9.54,2.177-19.648,4.043-30.326,5.599-10.682,1.555-19.546,2.853-26.594,3.888-18.248,2.488-33.436,7.465-45.566,14.93-12.13,7.465-18.195,19.182-18.195,35.147,0,14.93,5.492,26.283,16.484,34.058,10.988,7.776,25.088,11.664,42.301,11.664Z"/><path d="M2866.098,469.663c-19.906,0-36.444-3.373-49.61-10.108-13.17-6.736-23.692-14.877-31.569-24.417-7.883-9.535-13.895-18.453-18.041-26.749h-5.287v55.053h-79.003V0h80.869v173.247h3.421c3.938-8.087,9.744-16.952,17.418-26.593,7.67-9.643,18.143-17.934,31.415-24.883,13.268-6.945,30.171-10.42,50.698-10.42,26.75,0,50.957,6.843,72.627,20.528,21.666,13.686,38.88,33.854,51.632,60.496,12.753,26.647,19.129,59.252,19.129,97.821,0,38.155-6.274,70.605-18.817,97.354-12.549,26.749-29.602,47.122-51.166,61.118-21.568,13.997-46.14,20.995-73.715,20.995ZM2844.325,403.102c26.953,0,47.433-10.73,61.43-32.192,13.996-21.461,20.995-48.468,20.995-81.024,0-32.348-6.896-59.097-20.685-80.247-13.792-21.15-34.369-31.726-61.74-31.726-26.749,0-47.175,10.216-61.274,30.637-14.103,20.427-21.15,47.54-21.15,81.336s7.154,61.118,21.462,81.958c14.308,20.839,34.627,31.259,60.963,31.259Z"/><path d="M3211.657,470.597c-40.021,0-73.044-8.554-99.064-25.661-26.024-17.106-42.043-41.416-48.055-72.938l75.582-14.308c9.122,34.01,33.484,51.01,73.093,51.01,19.906,0,35.716-3.99,47.433-11.975,11.713-7.98,17.574-17.885,17.574-29.704,0-19.697-15.659-32.97-46.967-39.812l-59.408-12.752c-65.112-14.099-97.664-46.548-97.664-97.354,0-21.563,5.909-40.226,17.729-55.986,11.819-15.756,28.251-27.993,49.299-36.702,21.044-8.709,45.46-13.063,73.249-13.063,39.395,0,70.552,8.194,93.466,24.572,22.91,16.383,37.893,38.053,44.945,65.006l-72.16,14.308c-4.15-12.023-11.406-22.288-21.773-30.792-10.37-8.5-24.883-12.752-43.545-12.752-17.004,0-31.312,3.786-42.922,11.353-11.615,7.572-17.418,17.263-17.418,29.082,0,10.162,3.78,18.507,11.353,25.038,7.566,6.532,20.266,11.771,38.102,15.708l59.097,12.441c64.899,13.895,97.354,45.207,97.354,93.933,0,21.981-6.327,41.319-18.973,58.008-12.65,16.693-30.224,29.757-52.721,39.19-22.501,9.433-48.365,14.152-77.604,14.152Z"/></g></svg>